<?xml version="1.0" encoding="UTF-8"?>
<!DOCTYPE svg PUBLIC "-//W3C//DTD SVG 1.1//EN" "http://www.w3.org/Graphics/SVG/1.1/DTD/svg11.dtd">
<svg version="1.1" xmlns="http://www.w3.org/2000/svg" xmlns:xlink="http://www.w3.org/1999/xlink" x="0" y="0" width="72" height="72" viewBox="0, 0, 72, 72">
  <g id="Layer_1">
    <path d="M48.369,40.588 L50.467,42.134 L51.4,46 L53.867,47.267 L57.833,45.667 L62.6,58.467 L57.067,48.734 L53,51.401 L57.746,61.833 L50.4,52.8 L36,58.6 L21.467,52.6 L15.666,62.866 L19.666,51.833 L16,48.833 L8.666,61.934 L14.666,45.533 L20.4,46.8 L21.467,42.2 L24,41 L30.4,46.467 L33.467,46.467 L34.733,45.267 L34.533,39.533 L26.467,31.2 L25.467,15 L35.933,3.067 L46.333,14.734 L45.333,31.067 L37.266,39.4 L37.067,45.267 L38.333,46.6 L41.467,46.6 L48.369,40.588 z" fill-opacity="0" stroke="#000000" stroke-width="3.168" stroke-linecap="round" stroke-linejoin="round"/>
    <path d="M28.4,14.934 L29.267,31.534 L36.133,37.134 L42.533,31.667 L43.867,14.734 L36,7 L28.4,14.934 z" fill-opacity="0" stroke="#000000" stroke-width="3.168"/>
  </g>
</svg>
