<?xml version="1.0" encoding="utf-8"?>
<!-- Generator: Adobe Illustrator 14.0.0, SVG Export Plug-In . SVG Version: 6.00 Build 43363)  -->
<!DOCTYPE svg PUBLIC "-//W3C//DTD SVG 1.1//EN" "http://www.w3.org/Graphics/SVG/1.1/DTD/svg11.dtd">
<svg version="1.1" id="Layer_1" xmlns="http://www.w3.org/2000/svg" xmlns:xlink="http://www.w3.org/1999/xlink" x="0px" y="0px"
	 width="72px" height="72px" viewBox="0 0 72 72" enable-background="new 0 0 72 72" xml:space="preserve">
<polyline fill="none" stroke="#000000" stroke-width="3.168" points="30.771,37.126 28.373,31.667 27.04,14.732 36,7 44.867,14.732 
	43.533,31.667 40.938,37.147 "/>
<polygon fill="none" stroke="#000000" stroke-width="3.168" stroke-linecap="round" stroke-linejoin="round" points="35.85,58.6 
	42.316,52.6 53.117,62.866 49.117,51.833 52.783,51.833 63.117,61.934 57.117,45.533 51.383,46.8 50.316,42.2 47.783,41 
	41.383,46.467 39.316,46.467 39.05,45.267 39.268,39.4 45.333,31.066 46.333,14.733 35.933,3.066 25.467,15 26.467,31.201 
	32.533,39.533 32.733,45.267 32.467,46.467 30.4,46.467 24,41 21.467,42.2 20.4,46.8 14.666,45.533 8.666,61.934 19,51.833 
	22.666,51.833 18.666,62.866 29.467,52.6 "/>
<line fill="none" stroke="#000000" stroke-width="3.168" stroke-linecap="round" stroke-linejoin="round" x1="35.917" y1="14.808" x2="35.917" y2="15.528"/>
</svg>
