<?xml version="1.0" encoding="UTF-8"?>
<!DOCTYPE svg PUBLIC "-//W3C//DTD SVG 1.1//EN" "http://www.w3.org/Graphics/SVG/1.1/DTD/svg11.dtd">
<svg version="1.1" xmlns="http://www.w3.org/2000/svg" xmlns:xlink="http://www.w3.org/1999/xlink" x="0" y="0" width="612" height="792" viewBox="0, 0, 612, 792">
  <g id="Layer_1">
    <g>
      <path d="M212.333,220.334 L307.833,112.334 C307.833,112.334 309.668,563.667 307.833,577.834 C297,571 168.897,512 168.897,512 L197.001,477 L287.333,521.834 L282.333,419.501 L221.167,357.668 z" fill="#1A1919"/>
      <path d="M403.055,219.334 L307.555,112.334 C307.555,112.334 305.721,563.667 307.555,577.834 C318.389,571 437.667,517 437.667,517 L427,469 L328.055,522.834 L333.055,418.501 L394.223,356.668 z" fill="#1A1919"/>
      <path d="M264.531,231.333 L307.667,186.865 L354,230 L343.731,349.333 L309,382.666 L271.531,348 z" fill="#FFFFFE"/>
      <path d="M264.531,231.333 L307.667,186.865 L354,230 L343.731,349.333 L309,382.666 L271.531,348 L264.531,231.333 z" fill-opacity="0" stroke="#1A1919" stroke-width="1"/>
      <path d="M285.11,476.328 L218.001,399.334 C218.001,399.334 201.334,410.667 184.667,424.667 C172.667,447.334 145,643.334 123,662 C147.667,648 210,461 215.667,459.001 C233,476 287.334,521.834 287.334,521.834 z" fill="#1A1919"/>
      <path d="M330.379,474.335 L398.333,399.334 C398.333,399.334 415,410.667 431.667,424.667 C443.667,447.334 471.334,643.334 493.334,662 C468.667,648 406.334,461 400.667,459.001 C383.334,476 328.055,522.834 328.055,522.834 z" fill="#1A1919"/>
      <path d="M178.334,468.333 C178.334,468.333 148.334,443 129.667,435.667 C137,447.667 84.334,575.667 57,588.333 C83,588.333 139,494.333 139,494.333 L217.019,534.293 z" fill="#1A1919"/>
      <path d="M427,469 C427,469 468.334,441 487,433.667 C479.667,445.667 532.334,573.667 559.667,586.333 C533.667,586.333 477.667,492.333 477.667,492.333 L440.334,512 z" fill="#1A1919"/>
    </g>
  </g>
</svg>
